<?xml version="1.0" encoding="UTF-8" standalone="no"?>
<!-- Created with Inkscape (http://www.inkscape.org/) -->

<svg
   xmlns:dc="http://purl.org/dc/elements/1.1/"
   xmlns:cc="http://creativecommons.org/ns#"
   xmlns:rdf="http://www.w3.org/1999/02/22-rdf-syntax-ns#"
   xmlns:svg="http://www.w3.org/2000/svg"
   xmlns="http://www.w3.org/2000/svg"
   xmlns:sodipodi="http://sodipodi.sourceforge.net/DTD/sodipodi-0.dtd"
   xmlns:inkscape="http://www.inkscape.org/namespaces/inkscape"
   width="48.975117mm"
   height="31.980736mm"
   viewBox="0 0 48.975117 31.980736"
   version="1.1"
   id="svg8"
   inkscape:version="0.91 r13725"
   sodipodi:docname="logo.inkscape.svg">
  <defs
     id="defs2" />
  <sodipodi:namedview
     id="base"
     pagecolor="#ffffff"
     bordercolor="#666666"
     borderopacity="1.0"
     inkscape:pageopacity="0.0"
     inkscape:pageshadow="2"
     inkscape:zoom="1.979899"
     inkscape:cx="83.322452"
     inkscape:cy="83.104797"
     inkscape:document-units="mm"
     inkscape:current-layer="layer1"
     showgrid="false"
     fit-margin-top="0"
     fit-margin-left="0"
     fit-margin-right="0"
     fit-margin-bottom="0"
     showguides="true"
     inkscape:guide-bbox="true"
     inkscape:window-width="1600"
     inkscape:window-height="835"
     inkscape:window-x="0"
     inkscape:window-y="0"
     inkscape:window-maximized="1">
    <sodipodi:guide
       position="23.677985,20.834647"
       orientation="0,1"
       id="guide945"
       inkscape:locked="false" />
    <sodipodi:guide
       position="22.809359,7.3375362"
       orientation="0,1"
       id="guide947"
       inkscape:locked="false" />
    <sodipodi:guide
       position="18.065324,14.854491"
       orientation="0,1"
       id="guide949"
       inkscape:locked="false" />
    <sodipodi:guide
       position="15.593081,13.284283"
       orientation="0,1"
       id="guide951"
       inkscape:locked="false" />
  </sodipodi:namedview>
  <metadata
     id="metadata5">
    <rdf:RDF>
      <cc:Work
         rdf:about="">
        <dc:format>image/svg+xml</dc:format>
        <dc:type
           rdf:resource="http://purl.org/dc/dcmitype/StillImage" />
        <dc:title></dc:title>
      </cc:Work>
    </rdf:RDF>
  </metadata>
  <g
     inkscape:label="Calque 1"
     inkscape:groupmode="layer"
     id="layer1"
     transform="translate(-41.607772,-36.61682)">
    <path
       style="opacity:1;fill:#0000ff;fill-opacity:1;stroke:none;stroke-width:8.21738434;stroke-miterlimit:4;stroke-dasharray:none;stroke-opacity:1"
       d="m 82.318278,36.61682 0,7.337536 -2.881479,0 0,-3.528983 -0.927076,0 0,3.528983 -1.761649,0 0,0.927076 1.761649,0 0,2.881477 -1.761649,0 0,0.927076 1.761649,0 0,8.00571 0.927076,0 0,-8.00571 2.881479,0 0,3.528983 0.927074,0 0,-3.528983 3.528983,0 0,-0.927076 -3.528983,0 0,-2.881477 7.337536,0 0,-0.927076 -7.337536,0 0,-7.337536 z m -2.881479,8.264612 2.881479,0 0,2.881477 -2.881479,0 z"
       id="rect925"
       inkscape:connector-curvature="0"
       sodipodi:nodetypes="cccccccccccccccccccccccccccccccccc" />
    <text
       xml:space="preserve"
       style="font-style:normal;font-weight:normal;font-size:10.58333302px;line-height:1.25;font-family:sans-serif;letter-spacing:0px;word-spacing:0px;fill:#000000;fill-opacity:1;stroke:none;stroke-width:0.26458332"
       x="51.782742"
       y="53.583332"
       id="text817"><tspan
         sodipodi:role="line"
         id="tspan815"
         x="51.782742"
         y="53.583332"
         style="stroke-width:0.26458332"><tspan
   style="fill:#0000ff"
   id="tspan896">b</tspan>ash</tspan><tspan
         sodipodi:role="line"
         x="51.782742"
         y="66.8125"
         style="stroke-width:0.26458332"
         id="tspan894" /></text>
    <text
       xml:space="preserve"
       style="font-style:normal;font-weight:normal;font-size:10.58333302px;line-height:1.25;font-family:sans-serif;letter-spacing:0px;word-spacing:0px;fill:#000000;fill-opacity:1;stroke:none;stroke-width:0.26458332"
       x="76.162201"
       y="49.425594"
       id="text890"><tspan
         sodipodi:role="line"
         id="tspan888"
         x="76.162201"
         y="49.425594"
         style="stroke-width:0.26458332" /><tspan
         sodipodi:role="line"
         x="76.162201"
         y="62.654762"
         style="stroke-width:0.26458332"
         id="tspan892" /></text>
    <text
       xml:space="preserve"
       style="font-style:normal;font-weight:normal;font-size:10.58333302px;line-height:1.25;font-family:sans-serif;letter-spacing:0px;word-spacing:0px;fill:#000000;fill-opacity:1;stroke:none;stroke-width:0.26458332"
       x="58.808712"
       y="61.141872"
       id="text902"><tspan
         sodipodi:role="line"
         id="tspan900"
         x="58.808712"
         y="61.141872"
         style="stroke-width:0.26458332">sha<tspan
   style="fill:#0000ff"
   id="tspan904">re</tspan></tspan></text>
    <path
       inkscape:connector-curvature="0"
       id="path943"
       d="m 49.872382,49.186856 0,7.337536 2.881479,0 0,-4.230566 0.927075,0 0,4.230566 1.761649,0 0,0.927075 -1.761649,0 0,2.881477 1.761649,0 0,0.927076 -1.761649,0 0,7.337536 -0.927075,0 0,-7.337536 -2.881479,0 0,3.528983 -0.927074,0 0,-3.528982 -3.528983,0 0,-0.927076 3.528983,0 0,-2.881477 -7.337536,0 0,-0.927076 7.337536,0 0,-7.337536 z m 2.881479,8.264611 -2.881479,0 0,2.881477 2.881479,0 z"
       style="opacity:1;fill:#0000ff;fill-opacity:1;stroke:none;stroke-width:8.21738434;stroke-miterlimit:4;stroke-dasharray:none;stroke-opacity:1"
       sodipodi:nodetypes="cccccccccccccccccccccccccccccccccc" />
  </g>
</svg>
