<?xml version="1.0" encoding="UTF-8" standalone="no"?>
<svg
   xmlns:dc="http://purl.org/dc/elements/1.1/"
   xmlns:cc="http://creativecommons.org/ns#"
   xmlns:rdf="http://www.w3.org/1999/02/22-rdf-syntax-ns#"
   xmlns:svg="http://www.w3.org/2000/svg"
   xmlns="http://www.w3.org/2000/svg"
   id="svg8"
   version="1.1"
   viewBox="0 0 48.975117 31.980736"
   height="31.980736mm"
   width="48.975117mm">
  <defs
     id="defs2" />
  <metadata
     id="metadata5">
    <rdf:RDF>
      <cc:Work
         rdf:about="">
        <dc:format>image/svg+xml</dc:format>
        <dc:type
           rdf:resource="http://purl.org/dc/dcmitype/StillImage" />
        <dc:title></dc:title>
      </cc:Work>
    </rdf:RDF>
  </metadata>
  <g
     transform="translate(-41.607772,-36.61682)"
     id="layer1">
    <path
       id="rect925"
       d="m 82.318278,36.61682 0,7.337536 -2.881479,0 0,-3.528983 -0.927076,0 0,3.528983 -1.761649,0 0,0.927076 1.761649,0 0,2.881477 -1.761649,0 0,0.927076 1.761649,0 0,8.00571 0.927076,0 0,-8.00571 2.881479,0 0,3.528983 0.927074,0 0,-3.528983 3.528983,0 0,-0.927076 -3.528983,0 0,-2.881477 7.337536,0 0,-0.927076 -7.337536,0 0,-7.337536 z m -2.881479,8.264612 2.881479,0 0,2.881477 -2.881479,0 z"
       style="opacity:1;fill:#0000ff;fill-opacity:1;stroke:none;stroke-width:8.21738434;stroke-miterlimit:4;stroke-dasharray:none;stroke-opacity:1" />
    <text
       id="text817"
       y="53.583332"
       x="51.782742"
       style="font-style:normal;font-weight:normal;font-size:10.58333302px;line-height:1.25;font-family:sans-serif;letter-spacing:0px;word-spacing:0px;fill:#000000;fill-opacity:1;stroke:none;stroke-width:0.26458332"
       xml:space="preserve"><tspan
         style="stroke-width:0.26458332"
         y="53.583332"
         x="51.782742"
         id="tspan815"><tspan
   id="tspan896"
   style="fill:#0000ff">b</tspan>ash</tspan><tspan
         id="tspan894"
         style="stroke-width:0.26458332"
         y="66.8125"
         x="51.782742" /></text>
    <text
       id="text890"
       y="49.425594"
       x="76.162201"
       style="font-style:normal;font-weight:normal;font-size:10.58333302px;line-height:1.25;font-family:sans-serif;letter-spacing:0px;word-spacing:0px;fill:#000000;fill-opacity:1;stroke:none;stroke-width:0.26458332"
       xml:space="preserve"><tspan
         style="stroke-width:0.26458332"
         y="49.425594"
         x="76.162201"
         id="tspan888" /><tspan
         id="tspan892"
         style="stroke-width:0.26458332"
         y="62.654762"
         x="76.162201" /></text>
    <text
       id="text902"
       y="61.141872"
       x="58.808712"
       style="font-style:normal;font-weight:normal;font-size:10.58333302px;line-height:1.25;font-family:sans-serif;letter-spacing:0px;word-spacing:0px;fill:#000000;fill-opacity:1;stroke:none;stroke-width:0.26458332"
       xml:space="preserve"><tspan
         style="stroke-width:0.26458332"
         y="61.141872"
         x="58.808712"
         id="tspan900">sha<tspan
   id="tspan904"
   style="fill:#0000ff">re</tspan></tspan></text>
    <path
       style="opacity:1;fill:#0000ff;fill-opacity:1;stroke:none;stroke-width:8.21738434;stroke-miterlimit:4;stroke-dasharray:none;stroke-opacity:1"
       d="m 49.872382,49.186856 0,7.337536 2.881479,0 0,-4.230566 0.927075,0 0,4.230566 1.761649,0 0,0.927075 -1.761649,0 0,2.881477 1.761649,0 0,0.927076 -1.761649,0 0,7.337536 -0.927075,0 0,-7.337536 -2.881479,0 0,3.528983 -0.927074,0 0,-3.528982 -3.528983,0 0,-0.927076 3.528983,0 0,-2.881477 -7.337536,0 0,-0.927076 7.337536,0 0,-7.337536 z m 2.881479,8.264611 -2.881479,0 0,2.881477 2.881479,0 z"
       id="path943" />
  </g>
</svg>
